<svg xmlns="http://www.w3.org/2000/svg" xmlns:xlink="http://www.w3.org/1999/xlink" width="28.655" height="33.001" viewBox="0 0 28.655 33.001">
  <defs>
    <filter id="Path_9345" x="4.366" y="0" width="19.919" height="19.919" filterUnits="userSpaceOnUse">
      <feOffset dy="3" input="SourceAlpha"/>
      <feGaussianBlur stdDeviation="1.5" result="blur"/>
      <feFlood flood-opacity="0.161"/>
      <feComposite operator="in" in2="blur"/>
      <feComposite in="SourceGraphic"/>
    </filter>
    <filter id="Path_9346" x="0" y="10.854" width="28.655" height="22.147" filterUnits="userSpaceOnUse">
      <feOffset dy="3" input="SourceAlpha"/>
      <feGaussianBlur stdDeviation="1.5" result="blur-2"/>
      <feFlood flood-opacity="0.161"/>
      <feComposite operator="in" in2="blur-2"/>
      <feComposite in="SourceGraphic"/>
    </filter>
  </defs>
  <g id="Group_11796" data-name="Group 11796" transform="translate(-701.5 -707.499)">
    <g id="Group_10738" data-name="Group 10738" transform="translate(148.828 1)">
      <g id="noun_profile_4184368" transform="translate(557.172 707.999)">
        <g transform="matrix(1, 0, 0, 1, -4.5, -1.5)" filter="url(#Path_9345)">
          <path id="Path_9345-2" data-name="Path 9345" d="M56.983,26.547a5.459,5.459,0,1,0-1.833-4.08,5.459,5.459,0,0,0,1.833,4.08Z" transform="translate(-46.28 -15.51)" fill="#afacac"/>
        </g>
        <g transform="matrix(1, 0, 0, 1, -4.5, -1.5)" filter="url(#Path_9346)">
          <path id="Path_9346-2" data-name="Path 9346" d="M43.7,80.308a6.825,6.825,0,0,1-8.384,0A9.812,9.812,0,0,0,29.68,89.2v4.255H49.335V89.2A9.833,9.833,0,0,0,43.7,80.308Z" transform="translate(-25.18 -67.95)" fill="#afacac"/>
        </g>
      </g>
    </g>
    <rect id="Rectangle_17780" data-name="Rectangle 17780" width="24" height="24" transform="translate(704 709)" fill="none"/>
  </g>
</svg>
