<svg xmlns="http://www.w3.org/2000/svg" width="17.035" height="23.999" viewBox="0 0 17.035 23.999"><g transform="translate(-607.485 -666)"><path d="M278.406,87.326v1a1.115,1.115,0,0,0,1.118,1.114h6.629a1.119,1.119,0,0,0,1.118-1.114v-1a1.12,1.12,0,0,0-1.118-1.118h-6.629a1.116,1.116,0,0,0-1.118,1.118Z" transform="translate(333.16 579.792)" fill="#979797"/><path d="M212.93,104.66a.481.481,0,0,0-.48.48v21.9a.481.481,0,0,0,.48.48H229a.481.481,0,0,0,.48-.48v-21.9a.481.481,0,0,0-.48-.48H226.36v.979a2.078,2.078,0,0,1-2.078,2.074h-6.629a2.078,2.078,0,0,1-2.078-2.074v-.979Zm4.716,19.115-1.5,1.5a.48.48,0,0,1-.679,0l-.58-.58a.48.48,0,0,1,.679-.679l.241.241,1.161-1.161a.48.48,0,0,1,.679.679Zm0-4.38-1.5,1.5a.48.48,0,0,1-.679,0l-.58-.58a.48.48,0,0,1,.679-.679l.241.241,1.161-1.161a.48.48,0,0,1,.679.679Zm0-4.38-1.5,1.5a.48.48,0,0,1-.679,0l-.58-.58a.48.48,0,0,1,.679-.679l.241.241,1.161-1.161a.48.48,0,0,1,.679.679Zm2.02-4.449h7.04a.48.48,0,0,1,0,.96h-7.04a.48.48,0,0,1,0-.96Zm0,4.38h7.04a.48.48,0,0,1,0,.96h-7.04a.48.48,0,0,1,0-.96Zm0,4.38h7.04a.48.48,0,1,1,0,.96h-7.04a.48.48,0,0,1,0-.96Zm0,4.38h7.04a.48.48,0,1,1,0,.96h-7.04a.48.48,0,0,1,0-.96Zm-3.86-12.589,1.161-1.161a.48.48,0,0,1,.679.679l-1.5,1.5a.48.48,0,0,1-.679,0l-.58-.58a.48.48,0,0,1,.679-.679Z" transform="translate(395.035 562.482)" fill="#979797"/></g></svg>