<svg xmlns="http://www.w3.org/2000/svg" width="24" height="24.999" viewBox="0 0 24 24.999">
  <g id="Component_183_2" data-name="Component 183 – 2" transform="translate(0 0.5)">
    <g id="_14655891761535698998" data-name="14655891761535698998" transform="translate(-18.643 -4.88)">
      <path id="Path_9213" data-name="Path 9213" d="M32.934,22.372,36.961,15.9a.366.366,0,0,0,.033-.066,7.2,7.2,0,1,0-12.267,0,.417.417,0,0,0,.029.058l3.883,6.5c-3.014.426-5,1.666-5,3.169,0,1.863,3.166,3.322,7.207,3.322s7.207-1.459,7.207-3.322C38.057,24.046,35.982,22.779,32.934,22.372Zm-7.483-6.9a6.391,6.391,0,1,1,10.82,0,.389.389,0,0,0-.033.067l-4.255,6.841c-.064.1-.077.12-.155.249l-1.075,1.728-5.266-8.812A.405.405,0,0,0,25.45,15.468Zm5.4,12.6c-3.773,0-6.4-1.326-6.4-2.516,0-1.08,1.98-2.1,4.643-2.413l1.308,2.19a.4.4,0,0,0,.342.2h0a.4.4,0,0,0,.342-.19l1.375-2.211c2.705.293,4.788,1.336,4.788,2.429C37.251,26.747,34.622,28.073,30.85,28.073Z" fill="none" stroke="#979797" stroke-width="1"/>
      <path id="Path_9214" data-name="Path 9214" d="M45.965,24.546a2.617,2.617,0,1,0-2.617,2.617A2.62,2.62,0,0,0,45.965,24.546Zm-4.428,0a1.811,1.811,0,1,1,1.811,1.811A1.813,1.813,0,0,1,41.537,24.546Z" transform="translate(-12.498 -12.469)" fill="none" stroke="#979797" stroke-width="1"/>
    </g>
    <rect id="Rectangle_17791" data-name="Rectangle 17791" width="24" height="24" transform="translate(0 0.001)" fill="none"/>
  </g>
</svg>
