<svg id="Component_77_31" data-name="Component 77 – 31" xmlns="http://www.w3.org/2000/svg" width="23.999" height="24" viewBox="0 0 23.999 24">
  <path id="Path_9354" data-name="Path 9354" d="M179.939,187.935c.007-.014.021-.028.028-.042a.176.176,0,0,0,.028-.049.305.305,0,0,0,.028-.049.177.177,0,0,1,.028-.049c.007-.014.014-.035.021-.049s.014-.035.021-.056a.133.133,0,0,0,.014-.056c.007-.021.007-.035.014-.056s.007-.035.014-.049a.2.2,0,0,0,.007-.063c0-.014.007-.028.007-.049s.007-.077.007-.113h0a.606.606,0,0,0-.007-.113c0-.014-.007-.028-.007-.049s-.007-.042-.007-.063a.1.1,0,0,0-.014-.049c-.007-.021-.007-.035-.014-.056a.166.166,0,0,1-.014-.056c-.007-.021-.014-.035-.021-.056s-.014-.035-.021-.049a.113.113,0,0,0-.028-.049.176.176,0,0,0-.028-.049c-.007-.014-.021-.035-.028-.049s-.021-.028-.028-.042a.3.3,0,0,1-.035-.049c-.014-.014-.021-.028-.035-.042s-.007-.014-.014-.021l-3.619-4.021a1.2,1.2,0,1,0-1.782,1.6l1.824,2.028H161a1.2,1.2,0,0,0,0,2.394h15.28l-1.824,2.028a1.2,1.2,0,0,0,.894,2,1.182,1.182,0,0,0,.887-.394l3.619-4.021c.007-.007.014-.014.014-.021s.021-.028.035-.042A.157.157,0,0,1,179.939,187.935Z" transform="translate(-156.158 -175.248)" fill="#979797"/>
  <path id="Path_9355" data-name="Path 9355" d="M78.984,79.109a1.13,1.13,0,0,0-1.2,1.052v2.344A1.514,1.514,0,0,1,76.161,83.9h-9.14a1.514,1.514,0,0,1-1.627-1.392V65.495A1.514,1.514,0,0,1,67.021,64.1h9.14a1.514,1.514,0,0,1,1.627,1.392v2.344a1.207,1.207,0,0,0,2.394,0V65.495A3.779,3.779,0,0,0,76.161,62h-9.14A3.783,3.783,0,0,0,63,65.495v17.01A3.783,3.783,0,0,0,67.021,86h9.14a3.783,3.783,0,0,0,4.021-3.495V80.161A1.13,1.13,0,0,0,78.984,79.109Z" transform="translate(-63 -62)" fill="#979797"/>
</svg>
