<svg id="Component_78_39" data-name="Component 78 – 39" xmlns="http://www.w3.org/2000/svg" width="24" height="24" viewBox="0 0 24 24">
  <rect id="Rectangle_17774" data-name="Rectangle 17774" width="24" height="24" fill="none"/>
  <path id="Path_9759" data-name="Path 9759" d="M351.8,74.2c0-3.684-1.368-6.768-4.8-7.584V64h-4.8v2.616c-3.444.816-4.8,3.888-4.8,7.584v6.6L335,82v2.4h19.2V82l-2.4-1.2Zm-6.72,13.752a2.1,2.1,0,0,1-.48.048,2.417,2.417,0,0,1-2.412-2.4h4.8a2.409,2.409,0,0,1-.18.936A2.435,2.435,0,0,1,345.08,87.952Z" transform="translate(-332.6 -64)" fill="#afacac"/>
</svg>
