<svg xmlns="http://www.w3.org/2000/svg" width="230" height="230" viewBox="0 0 230 230">
  <g id="Group_12298" data-name="Group 12298" transform="translate(-9.291 -87.273)">
    <path id="Path_9356" data-name="Path 9356" d="M115,0A115,115,0,1,1,0,115,115,115,0,0,1,115,0Z" transform="translate(9.291 87.273)" fill="#f1efef"/>
    <g id="Group_10518" data-name="Group 10518" transform="translate(69.425 136.305)">
      <path id="Path_9161" data-name="Path 9161" d="M2766.33,587.49a34.5,34.5,0,1,1,34.5,34.487A34.5,34.5,0,0,1,2766.33,587.49Zm34.5,20.693a20.693,20.693,0,1,0-20.694-20.693A20.685,20.685,0,0,0,2800.829,608.183Z" transform="translate(-2745.639 -553)" fill="#0f1828" opacity="0.66"/>
      <path id="Path_9162" data-name="Path 9162" d="M2775.5,594.828a55.2,55.2,0,0,0-16.17,39.019h13.805a41.386,41.386,0,0,1,82.772,0h13.8a55.19,55.19,0,0,0-94.212-39.019Z" transform="translate(-2759.33 -502.79)" fill="#0f1828" opacity="0.66"/>
    </g>
  </g>
</svg>
