<svg id="noun_engineer_1050429" xmlns="http://www.w3.org/2000/svg" width="24" height="24" viewBox="0 0 24 24">
  <path id="Path_9340" data-name="Path 9340" d="M29.246,30.08c-.263-1.339-.932-4.505-1.477-5A72.48,72.48,0,0,0,20.62,21.9a9.1,9.1,0,0,0,1.619-3.147c.6-.448.731-1.8.747-2.692,0,0,.951-.185.951-.414,0-.042-.2-1.546-.2-1.546a.407.407,0,0,0-.4-.36H22.317c-.214,0-.194-.085-.194-.189s-.019-.189.194-.189h.873c-.418-3.005-1.326-4.93-3.121-5.723a2.21,2.21,0,0,0-2.138-1.058H16.292a1.919,1.919,0,0,0-2.03,1.231c-1.643.673-2.763,2.68-3.144,5.55h.9c.214,0,.194.085.194.189s.019.189-.194.189H10.982a.406.406,0,0,0-.4.36l-.193,1.492c-.016.118,1.049.469,1.049.469.051.8.236,2.178.9,2.687a9.577,9.577,0,0,0,1.443,3.132c-5.635,2.437-6.634,3-6.865,3.236-.489.49-1.317,3.622-1.651,4.946a.425.425,0,0,0,.071.358.4.4,0,0,0,.318.161h23.2a.4.4,0,0,0,.311-.152A.424.424,0,0,0,29.246,30.08ZM16.229,7.964c.149.518.377,1.337.448,1.731.046.256.869.256.916,0,.072-.392.3-1.212.449-1.731h1.082s-.451,1.26-.549,1.677c-.313,1.326-.226,1.186-.226,1.186a1.435,1.435,0,0,0-1.192-.637,1.456,1.456,0,0,0-1.192.637s.075.172-.226-1.186c-.1-.431-.549-1.676-.549-1.676h1.041Zm2.2,4.821v.047a1.266,1.266,0,0,1-1.245,1.283h-.046a1.266,1.266,0,0,1-1.245-1.283v-.047A1.266,1.266,0,0,1,17.135,11.5h.046A1.266,1.266,0,0,1,18.426,12.785Zm-5.3,5.6A.434.434,0,0,0,12.9,18.1c-.326-.149-.58-1.31-.621-2.319l1.47.768c.032.017,6.865.012,6.865.012l1.579-.78a4.277,4.277,0,0,1-.365,2.292.409.409,0,0,0-.282.307c-.192.874-1.444,4.544-4.356,4.544C14.258,22.923,13.361,19.189,13.127,18.381Zm7.208,4.272a3.191,3.191,0,0,1-3.193,2.1,3.03,3.03,0,0,1-3.037-2.1c.037-.016.572-.253.589-.264a3.5,3.5,0,0,0,2.5,1,4.017,4.017,0,0,0,2.562-.989C19.778,22.422,20.168,22.585,20.335,22.653Zm4.171,7.3H10V27.414h1.123a.231.231,0,0,0,.228-.235V23.861c.466-.207.988-.437,1.571-.692v4.01a.231.231,0,0,0,.228.235h8.3a.231.231,0,0,0,.228-.235V23.2c.536.222,1.065.442,1.571.656v3.319a.231.231,0,0,0,.228.235h1.027v2.534Z" transform="translate(-5.254 -6.577)" fill="#afacac"/>
</svg>
